<svg xmlns="http://www.w3.org/2000/svg" width="160" height="110" viewBox="0 0 160 110">
<defs><linearGradient id="bsh" x1="0" y1="0" x2="0" y2="1"><stop offset="0" stop-color="#96c95e"/><stop offset="1" stop-color="#5f9434"/></linearGradient></defs>
<ellipse cx="80" cy="96" rx="58" ry="10" fill="#2a1d12" opacity="0.2"/><circle cx="44" cy="66" r="30" fill="url(#bsh)" stroke="#5a4632" stroke-width="3" stroke-linejoin="round"/><circle cx="82" cy="52" r="36" fill="url(#bsh)" stroke="#5a4632" stroke-width="3" stroke-linejoin="round"/><circle cx="118" cy="68" r="30" fill="url(#bsh)" stroke="#5a4632" stroke-width="3" stroke-linejoin="round"/><circle cx="68" cy="76" r="28" fill="url(#bsh)" stroke="#5a4632" stroke-width="3" stroke-linejoin="round"/><circle cx="102" cy="78" r="26" fill="url(#bsh)" stroke="#5a4632" stroke-width="3" stroke-linejoin="round"/><path d="M58 48 q8 -12 20 -6 q-8 11 -20 6 Z" fill="#86b94e" opacity="0.65"/><path d="M90 38 q8 -12 20 -6 q-8 11 -20 6 Z" fill="#86b94e" opacity="0.65"/><path d="M120 56 q8 -12 20 -6 q-8 11 -20 6 Z" fill="#5f9434" opacity="0.65"/><path d="M40 78 q8 -12 20 -6 q-8 11 -20 6 Z" fill="#4a7a28" opacity="0.65"/><circle cx="52" cy="64" r="4" fill="#c83a59" opacity="0.88"/><circle cx="84" cy="70" r="4" fill="#9c2440" opacity="0.88"/><circle cx="112" cy="72" r="4" fill="#c83a59" opacity="0.88"/><circle cx="74" cy="90" r="4" fill="#fff7d8" opacity="0.88"/><circle cx="126" cy="88" r="4" fill="#d8e8ff" opacity="0.88"/>
</svg>