<svg xmlns="http://www.w3.org/2000/svg" width="100" height="165" viewBox="0 0 100 165">
<defs><radialGradient id="lg" cx="0.5" cy="0.5" r="0.7"><stop offset="0" stop-color="#ffd98a"/><stop offset="1" stop-color="#ffcf6a"/></radialGradient></defs>
<circle cx="50" cy="80" r="48" fill="#ffcf6a" opacity="0.18"/><ellipse cx="50" cy="154" rx="28" ry="8" fill="#2a1d12" opacity="0.2"/><path d="M50 10 q-10 0 -10 12 h20 q0 -12 -10 -12 Z" fill="#7c5128"/><path d="M28 26 q22 -18 44 0" stroke="#7c5128" stroke-width="5" fill="none" stroke-linecap="round"/><rect x="33" y="32" width="34" height="11" rx="4" fill="#7c5128" stroke="#5a4632" stroke-width="3" stroke-linejoin="round"/><rect x="30" y="42" width="40" height="76" rx="12" fill="url(#lg)" stroke="#5a4632" stroke-width="3" stroke-linejoin="round"/><ellipse cx="50" cy="80" rx="10" ry="18" fill="#ffd98a"/><path d="M50 64 q-8 12 0 24 q8 -12 0 -24 Z" fill="#fff7d8" opacity="0.7"/><rect x="33" y="116" width="34" height="13" rx="4" fill="#7c5128" stroke="#5a4632" stroke-width="3" stroke-linejoin="round"/><rect x="46" y="128" width="8" height="24" rx="3" fill="#7c5128" stroke="#5a4632" stroke-width="3" stroke-linejoin="round"/>
</svg>