<svg xmlns="http://www.w3.org/2000/svg" width="128" height="128" viewBox="0 0 128 128">
<defs><linearGradient id="gg" x1="0" y1="0" x2="0" y2="1"><stop offset="0" stop-color="#b6d879"/><stop offset="1" stop-color="#86b94e"/></linearGradient><radialGradient id="sun" cx="0.32" cy="0.22" r="0.9"><stop offset="0" stop-color="#d7ec98"/><stop offset="1" stop-color="#86b94e"/></radialGradient></defs>
<rect width="128" height="128" fill="url(#gg)"/><circle cx="38" cy="30" r="82" fill="url(#sun)" opacity="0.34"/><path d="M18 28 q-4.0 -12.0 0 -18.0 q4.0 7.0 0 18.0 Z" fill="#5f9434" opacity="0.46"/><path d="M24.0 30.0 q6.0 -9.0 10.0 -14.0 q-1.0 7.0 -10.0 14.0 Z" fill="#a6d268" opacity="0.42"/><path d="M50 18 q-3.2 -9.600000000000001 0 -14.4 q3.2 5.6000000000000005 0 14.4 Z" fill="#5f9434" opacity="0.46"/><path d="M54.8 19.6 q4.800000000000001 -7.2 8.0 -11.200000000000001 q-0.8 5.6000000000000005 -8.0 11.200000000000001 Z" fill="#a6d268" opacity="0.42"/><path d="M90 36 q-4.0 -12.0 0 -18.0 q4.0 7.0 0 18.0 Z" fill="#5f9434" opacity="0.46"/><path d="M96.0 38.0 q6.0 -9.0 10.0 -14.0 q-1.0 7.0 -10.0 14.0 Z" fill="#a6d268" opacity="0.42"/><path d="M112 84 q-3.6 -10.8 0 -16.2 q3.6 6.3 0 16.2 Z" fill="#5f9434" opacity="0.46"/><path d="M117.4 85.8 q5.4 -8.1 9.0 -12.6 q-0.9 6.3 -9.0 12.6 Z" fill="#a6d268" opacity="0.42"/><path d="M34 98 q-4.4 -13.200000000000001 0 -19.8 q4.4 7.700000000000001 0 19.8 Z" fill="#5f9434" opacity="0.46"/><path d="M40.6 100.2 q6.6000000000000005 -9.9 11.0 -15.400000000000002 q-1.1 7.700000000000001 -11.0 15.400000000000002 Z" fill="#a6d268" opacity="0.42"/><path d="M76 108 q-3.6 -10.8 0 -16.2 q3.6 6.3 0 16.2 Z" fill="#5f9434" opacity="0.46"/><path d="M81.4 109.8 q5.4 -8.1 9.0 -12.6 q-0.9 6.3 -9.0 12.6 Z" fill="#a6d268" opacity="0.42"/><path d="M18 70 q-3.0 -9.0 0 -13.5 q3.0 5.25 0 13.5 Z" fill="#4a7a28" opacity="0.46"/><path d="M22.5 71.5 q4.5 -6.75 7.5 -10.5 q-0.75 5.25 -7.5 10.5 Z" fill="#a6d268" opacity="0.42"/><path d="M104 18 q-3.0 -9.0 0 -13.5 q3.0 5.25 0 13.5 Z" fill="#4a7a28" opacity="0.46"/><path d="M108.5 19.5 q4.5 -6.75 7.5 -10.5 q-0.75 5.25 -7.5 10.5 Z" fill="#a6d268" opacity="0.42"/><circle cx="45" cy="62" r="2.2" fill="#fff7d8" opacity="0.85"/><circle cx="47" cy="61" r="1.3" fill="#fff" opacity="0.55"/><circle cx="84" cy="70" r="2.2" fill="#f7d980" opacity="0.85"/><circle cx="86" cy="69" r="1.3" fill="#fff" opacity="0.55"/><circle cx="26" cy="46" r="2.2" fill="#d8e8ff" opacity="0.85"/><circle cx="28" cy="45" r="1.3" fill="#fff" opacity="0.55"/><circle cx="107" cy="56" r="2.2" fill="#fff7d8" opacity="0.85"/><circle cx="109" cy="55" r="1.3" fill="#fff" opacity="0.55"/><circle cx="66" cy="32" r="2.2" fill="#f7d980" opacity="0.85"/><circle cx="68" cy="31" r="1.3" fill="#fff" opacity="0.55"/><circle cx="70" cy="98" r="2.2" fill="#d8e8ff" opacity="0.85"/><circle cx="72" cy="97" r="1.3" fill="#fff" opacity="0.55"/>
</svg>